<?xml version="1.0" encoding="UTF-8" standalone="no"?>
<!DOCTYPE svg PUBLIC "-//W3C//DTD SVG 1.1//EN" "http://www.w3.org/Graphics/SVG/1.1/DTD/svg11.dtd">
<svg width="100%" height="100%" viewBox="0 0 737 750" version="1.1" xmlns="http://www.w3.org/2000/svg" xmlns:xlink="http://www.w3.org/1999/xlink" xml:space="preserve" xmlns:serif="http://www.serif.com/" style="fill-rule:evenodd;clip-rule:evenodd;stroke-linejoin:round;stroke-miterlimit:2;">
    <g transform="matrix(1,0,0,1,-62.738856,-233.829455)">
        <g transform="matrix(5.577188,0,0,1,-4847.86003,18.829455)">
            <path d="M960,307.846L960,873.872C960,916.494 953.795,951.098 946.153,951.098C938.511,951.098 932.306,916.494 932.306,873.872L932.306,307.846C932.306,265.223 938.511,230.62 946.153,230.62C953.795,230.62 960,265.223 960,307.846Z"/>
        </g>
        <g transform="matrix(0,-5.577188,1,0,-161.119857,5885.490158)">
            <path d="M960,307.846L960,873.872C960,916.494 953.795,951.098 946.153,951.098C938.511,951.098 932.306,916.494 932.306,873.872L932.306,307.846C932.306,265.223 938.511,230.62 946.153,230.62C953.795,230.62 960,265.223 960,307.846Z"/>
        </g>
        <g transform="matrix(-3.943667,-3.943667,0.707107,-0.707107,3742.25225,4758.412446)">
            <path d="M960,307.846L960,873.872C960,916.494 953.795,951.098 946.153,951.098C938.511,951.098 932.306,916.494 932.306,873.872L932.306,307.846C932.306,265.223 938.511,230.62 946.153,230.62C953.795,230.62 960,265.223 960,307.846Z"/>
        </g>
        <g transform="matrix(-3.943667,3.943667,-0.707107,-0.707107,4577.660691,-2704.89753)">
            <path d="M960,307.846L960,873.872C960,916.494 953.795,951.098 946.153,951.098C938.511,951.098 932.306,916.494 932.306,873.872L932.306,307.846C932.306,265.223 938.511,230.62 946.153,230.62C953.795,230.62 960,265.223 960,307.846Z"/>
        </g>
    </g>
</svg>
