<?xml version="1.0" encoding="UTF-8" standalone="no"?>
<!DOCTYPE svg PUBLIC "-//W3C//DTD SVG 1.1//EN" "http://www.w3.org/Graphics/SVG/1.1/DTD/svg11.dtd">
<svg width="100%" height="100%" viewBox="0 0 711 131" version="1.1" xmlns="http://www.w3.org/2000/svg" xmlns:xlink="http://www.w3.org/1999/xlink" xml:space="preserve" xmlns:serif="http://www.serif.com/" style="fill-rule:evenodd;clip-rule:evenodd;stroke-linejoin:round;stroke-miterlimit:2;">
    <g transform="matrix(1.037613,0,0,1.037613,-12.451362,-63.520104)">
        <path d="M17.551,178.024L17.551,67.925L39.293,67.925L39.293,106.506L55.484,106.506L55.484,67.925L77.227,67.925L77.227,178.024L55.484,178.024L55.484,126.86L39.293,126.86L39.293,178.024L17.551,178.024Z" style="fill:white;fill-rule:nonzero;"/>
        <path d="M134.589,178.024L88.329,178.024L88.329,67.925L134.126,67.925L134.126,88.28L110.071,88.28L110.071,109.282L132.276,109.282L132.276,129.636L110.071,129.636L110.071,157.67L134.589,157.67L134.589,178.024Z" style="fill:white;fill-rule:nonzero;"/>
        <path d="M201.666,96.606C201.666,102.096 200.525,106.784 198.243,110.669C197.194,112.52 195.914,114.154 194.403,115.573C192.892,116.992 191.026,118.194 188.806,119.181C186.709,120.045 184.457,120.6 182.052,120.847L182.052,122.327C184.272,122.327 186.524,123.036 188.806,124.455C190.965,125.874 192.661,127.755 193.894,130.099C194.203,130.715 194.465,131.332 194.681,131.949C194.897,132.566 195.097,133.183 195.282,133.799L206.292,178.024L184.55,178.024L171.69,131.486L164.658,131.486L164.658,178.024L142.916,178.024L142.916,67.925L175.298,67.925C178.258,67.925 181.111,68.372 183.856,69.267C186.601,70.161 189.083,71.472 191.304,73.199C193.524,74.988 195.39,77.023 196.901,79.305C198.412,81.587 199.6,84.209 200.463,87.169C201.265,90.192 201.666,93.337 201.666,96.606ZM164.658,111.132L169.747,111.132C170.919,111.132 172.044,110.978 173.124,110.669C174.203,110.361 175.205,109.868 176.13,109.189C177.734,107.894 178.875,106.043 179.554,103.638C179.8,102.589 179.924,101.294 179.924,99.752C179.924,96.236 179.029,93.445 177.241,91.379C175.452,89.313 172.954,88.28 169.747,88.28L164.658,88.28L164.658,111.132Z" style="fill:white;fill-rule:nonzero;"/>
        <path d="M243.855,67.925L250.887,111.965C251.318,114.74 251.704,117.778 252.043,121.078C252.382,124.378 252.675,127.971 252.922,131.857C253.107,134.817 253.246,137.361 253.338,139.489C253.431,141.617 253.508,143.745 253.57,145.873C253.631,148.001 253.724,150.607 253.847,153.691C253.909,155.542 253.94,157.33 253.94,159.057L253.94,164.146L255.79,164.146C255.79,160.754 255.836,157.269 255.929,153.691C256.021,150.114 256.129,146.475 256.253,142.774C256.376,138.888 256.561,135.203 256.808,131.718C257.055,128.233 257.363,124.794 257.733,121.402C257.918,119.736 258.103,118.117 258.288,116.544C258.473,114.972 258.689,113.445 258.936,111.965L265.875,67.925L296.499,67.925L296.499,178.024L274.757,178.024L274.757,164.979C274.757,160.168 274.88,154.848 275.127,149.019C275.374,143.19 275.713,137.531 276.145,132.042C276.576,126.182 277.039,120.384 277.532,114.648C278.026,108.912 278.581,103.237 279.198,97.624C279.444,94.849 279.722,92.135 280.03,89.482C280.277,86.83 280.524,84.27 280.771,81.803L278.92,81.803C278.55,85.627 278.149,89.236 277.717,92.628C277.286,96.02 276.838,99.444 276.376,102.898C275.913,106.352 275.404,110.176 274.849,114.37C274.356,117.886 273.785,121.648 273.138,125.658C272.49,129.667 271.827,133.645 271.149,137.593C270.47,141.54 269.822,145.179 269.206,148.51C268.712,151.224 268.219,153.876 267.725,156.467C267.17,159.057 266.646,161.586 266.152,164.053L263.192,178.024L246.538,178.024L243.578,164.053C242.837,160.353 242.143,156.868 241.496,153.599C240.848,150.33 240.216,146.953 239.599,143.468C238.982,139.983 238.335,136.051 237.656,131.671C236.546,125.01 235.559,118.765 234.696,112.936C233.832,107.107 233.154,101.973 232.66,97.532C232.29,94.818 231.951,92.135 231.642,89.482C231.334,86.83 231.057,84.27 230.81,81.803L228.959,81.803C229.453,86.553 229.977,91.672 230.532,97.162C231.087,102.651 231.642,108.48 232.198,114.648C232.568,119.089 232.891,123.067 233.169,126.583C233.447,130.099 233.709,133.614 233.955,137.13C234.202,140.646 234.418,144.624 234.603,149.065C234.85,154.555 234.973,159.859 234.973,164.979L234.973,178.024L213.231,178.024L213.231,67.925L243.855,67.925Z" style="fill:white;fill-rule:nonzero;"/>
        <path d="M353.861,178.024L307.601,178.024L307.601,67.925L353.399,67.925L353.399,88.28L329.344,88.28L329.344,109.282L351.548,109.282L351.548,129.636L329.344,129.636L329.344,157.67L353.861,157.67L353.861,178.024Z" style="fill:white;fill-rule:nonzero;"/>
        <path d="M394.015,100.955L394.015,94.478C394.015,88.495 392.01,85.504 388.001,85.504C386.151,85.504 384.701,86.213 383.653,87.632C382.604,89.051 382.08,91.086 382.08,93.738C382.08,94.54 382.157,95.404 382.311,96.329C382.465,97.254 382.851,98.241 383.468,99.289C383.961,100.215 384.701,101.309 385.688,102.574C386.675,103.838 387.909,105.18 389.389,106.599C390.129,107.4 390.962,108.233 391.887,109.097C392.751,110.022 393.738,110.978 394.848,111.965C398.178,114.987 401.247,117.948 404.053,120.847C406.86,123.746 409.158,126.305 410.946,128.526C412.735,130.87 414.154,133.121 415.202,135.28C416.251,137.439 417.022,139.659 417.515,141.941C417.762,143.113 417.931,144.316 418.024,145.549C418.117,146.783 418.163,148.078 418.163,149.435C418.163,153.136 417.762,156.544 416.96,159.659C416.158,162.774 414.925,165.565 413.259,168.032C411.717,170.376 409.697,172.38 407.199,174.046C404.701,175.711 401.972,176.914 399.011,177.654C395.742,178.517 392.226,178.949 388.464,178.949C380.877,178.949 374.709,177.315 369.96,174.046C365.272,170.838 362.157,166.058 360.615,159.705C359.814,156.621 359.413,153.074 359.413,149.065L359.413,139.351L379.767,139.351L379.767,149.158C379.767,152.735 380.507,155.511 381.987,157.485C383.344,159.458 385.442,160.445 388.279,160.445C389.266,160.445 390.222,160.306 391.147,160.029C392.072,159.751 392.843,159.304 393.46,158.687C394.015,158.132 394.539,157.438 395.033,156.606C395.526,155.773 395.896,154.74 396.143,153.506C396.205,152.951 396.266,152.35 396.328,151.702C396.39,151.054 396.421,150.391 396.421,149.713C396.421,148.418 396.328,147.292 396.143,146.336C395.958,145.38 395.588,144.347 395.033,143.236C394.416,142.126 393.568,140.985 392.488,139.813C391.409,138.641 390.16,137.346 388.741,135.927C387.94,135.187 387.061,134.385 386.105,133.522C385.149,132.658 384.115,131.733 383.005,130.746C379.551,127.662 376.544,124.84 373.984,122.281C371.425,119.721 369.251,117.238 367.462,114.833C365.673,112.489 364.27,110.222 363.252,108.033C362.234,105.843 361.479,103.607 360.985,101.325C360.739,100.215 360.569,99.043 360.477,97.809C360.384,96.576 360.338,95.311 360.338,94.016C360.338,90.623 360.692,87.462 361.402,84.533C362.111,81.603 363.237,79.028 364.779,76.807C367.801,72.49 372.18,69.591 377.917,68.11C380.754,67.37 383.992,67 387.631,67C394.539,67 400.214,68.388 404.655,71.163C406.135,72.089 407.708,73.538 409.373,75.512C411.039,77.486 412.334,80.169 413.259,83.561C413.999,86.337 414.369,89.421 414.369,92.813L414.369,100.955L394.015,100.955Z" style="fill:white;fill-rule:nonzero;"/>
        <path d="M589.14,151.101L589.14,178.024L567.398,178.024L567.398,67.925L592.841,67.925L601.075,97.532C601.815,100.06 602.586,102.882 603.388,105.997C604.19,109.112 604.961,112.227 605.701,115.342C606.441,118.457 607.058,121.217 607.551,123.622C608.661,128.742 609.648,133.491 610.512,137.87C611.375,142.25 612.239,146.752 613.102,151.378C613.473,153.599 613.812,155.758 614.12,157.855C614.429,160.013 614.737,162.111 615.045,164.146L616.896,164.146C616.402,160.877 615.94,157.932 615.508,155.31C615.076,152.689 614.644,149.99 614.213,147.215C613.781,144.439 613.318,141.139 612.825,137.315C612.393,134.601 611.961,131.533 611.53,128.109C611.098,124.686 610.697,121.294 610.327,117.932C609.957,114.571 609.71,111.595 609.587,109.004C609.402,106.722 609.263,104.486 609.17,102.296C609.078,100.107 609.032,97.994 609.032,95.959L609.032,67.925L630.774,67.925L630.774,178.024L606.719,178.024L598.207,149.435C597.59,147.462 596.881,144.994 596.079,142.034C595.277,139.073 594.429,135.912 593.534,132.55C592.64,129.189 591.823,125.874 591.083,122.605C590.034,118.102 588.986,113.46 587.937,108.68C586.888,103.9 585.963,99.197 585.161,94.571C584.73,92.35 584.329,90.161 583.959,88.002C583.589,85.843 583.249,83.777 582.941,81.803L581.091,81.803C581.707,85.812 582.386,90.053 583.126,94.525C583.866,98.996 584.606,103.73 585.346,108.727C585.963,113.538 586.58,118.395 587.197,123.298C587.814,128.202 588.307,132.998 588.677,137.685C588.801,140.029 588.908,142.327 589.001,144.578C589.093,146.829 589.14,149.004 589.14,151.101Z" style="fill:white;fill-rule:nonzero;"/>
        <path d="M688.136,178.024L641.876,178.024L641.876,67.925L687.674,67.925L687.674,88.28L663.618,88.28L663.618,109.282L685.823,109.282L685.823,129.636L663.618,129.636L663.618,157.67L688.136,157.67L688.136,178.024Z" style="fill:white;fill-rule:nonzero;"/>
    </g>
    <g transform="matrix(1,0,0,1,-12,-61)">
        <path d="M464.16,124.408C464.16,118.072 465.152,112.072 467.136,106.408C469.12,100.744 471.904,95.48 475.488,90.616C479.008,85.816 483.216,81.656 488.112,78.136C493.008,74.616 498.272,71.896 503.904,69.976C506.72,69.016 509.648,68.28 512.688,67.768C515.728,67.256 518.816,67 521.952,67C528.416,67 534.496,68.008 540.192,70.024C545.888,72.04 551.104,74.744 555.84,78.136C561.28,82.168 565.696,86.664 569.088,91.624C572.48,96.584 575.008,101.496 576.672,106.36C577.632,109.24 578.368,112.184 578.88,115.192C579.392,118.2 579.648,121.272 579.648,124.408C579.648,130.68 578.672,136.792 576.72,142.744C574.768,148.696 572.032,154.136 568.512,159.064C564.928,163.928 560.688,168.168 555.792,171.784C550.896,175.4 545.664,178.168 540.096,180.088C534.272,182.136 528.224,183.16 521.952,183.16C515.552,183.16 509.472,182.136 503.712,180.088C497.952,178.04 492.704,175.256 487.968,171.736C483.168,168.152 478.992,163.96 475.44,159.16C471.888,154.36 469.12,148.92 467.136,142.84C466.176,139.96 465.44,136.968 464.928,133.864C464.416,130.76 464.16,127.608 464.16,124.408Z" style="fill:white;"/>
    </g>
</svg>
