<?xml version="1.0" encoding="UTF-8" standalone="no"?>
<!DOCTYPE svg PUBLIC "-//W3C//DTD SVG 1.1//EN" "http://www.w3.org/Graphics/SVG/1.1/DTD/svg11.dtd">
<svg width="100%" height="100%" viewBox="0 0 582 438" version="1.1" xmlns="http://www.w3.org/2000/svg" xmlns:xlink="http://www.w3.org/1999/xlink" xml:space="preserve" xmlns:serif="http://www.serif.com/" style="fill-rule:evenodd;clip-rule:evenodd;stroke-linejoin:round;stroke-miterlimit:2;">
    <g transform="matrix(0.910144,0,0,0.856459,-518.54489,-117.191388)">
        <path d="M945.268,570.614L945.268,642.2L887.458,642.2L887.458,349.46L955.108,349.46L977.002,428.18C978.97,434.904 981.02,442.407 983.152,450.689C985.284,458.971 987.334,467.253 989.302,475.535C991.27,483.817 992.91,491.156 994.222,497.552C997.174,511.164 999.798,523.792 1002.094,535.436C1004.39,547.08 1006.686,559.052 1008.982,571.352C1009.966,577.256 1010.868,582.996 1011.688,588.572C1012.508,594.312 1013.328,599.888 1014.148,605.3L1019.068,605.3C1017.756,596.608 1016.526,588.777 1015.378,581.807C1014.23,574.837 1013.082,567.662 1011.934,560.282C1010.786,552.902 1009.556,544.128 1008.244,533.96C1007.096,526.744 1005.948,518.585 1004.8,509.483C1003.652,500.381 1002.586,491.361 1001.602,482.423C1000.618,473.485 999.962,465.572 999.634,458.684C999.142,452.616 998.773,446.671 998.527,440.849C998.281,435.027 998.158,429.41 998.158,423.998L998.158,349.46L1055.968,349.46L1055.968,642.2L992.008,642.2L969.376,566.186C967.736,560.938 965.85,554.378 963.718,546.506C961.586,538.634 959.331,530.229 956.953,521.291C954.575,512.353 952.402,503.538 950.434,494.846C947.646,482.874 944.858,470.533 942.07,457.823C939.282,445.113 936.822,432.608 934.69,420.308C933.542,414.404 932.476,408.582 931.492,402.842C930.508,397.102 929.606,391.608 928.786,386.36L923.866,386.36C925.506,397.02 927.31,408.295 929.278,420.185C931.246,432.075 933.214,444.662 935.182,457.946C936.822,470.738 938.462,483.653 940.102,496.691C941.742,509.729 943.054,522.48 944.038,534.944C944.366,541.176 944.653,547.285 944.899,553.271C945.145,559.257 945.268,565.038 945.268,570.614Z" style="fill-rule:nonzero;"/>
        <path d="M1208.488,642.2L1085.488,642.2L1085.488,349.46L1207.258,349.46L1207.258,403.58L1143.298,403.58L1143.298,459.422L1202.338,459.422L1202.338,513.542L1143.298,513.542L1143.298,588.08L1208.488,588.08L1208.488,642.2Z" style="fill-rule:nonzero;"/>
    </g>
    <g transform="matrix(1.012117,0,0,1,-581.926217,-360)">
        <path d="M574.636,665.992C574.636,652.087 576.922,638.918 581.494,626.488C586.066,614.057 592.481,602.504 600.74,591.829C608.851,581.295 618.548,572.165 629.83,564.44C641.112,556.715 653.242,550.745 666.219,546.531C672.708,544.424 679.456,542.809 686.461,541.686C693.466,540.562 700.582,540 707.808,540C722.703,540 736.713,542.212 749.839,546.637C762.964,551.061 774.984,556.996 785.897,564.44C798.432,573.289 808.608,583.156 816.424,594.042C824.241,604.927 830.066,615.708 833.9,626.382C836.113,632.703 837.809,639.164 838.988,645.766C840.168,652.367 840.758,659.11 840.758,665.992C840.758,679.757 838.509,693.171 834.011,706.234C829.513,719.296 823.208,731.235 815.097,742.051C806.839,752.726 797.068,762.031 785.786,769.967C774.504,777.903 762.448,783.978 749.618,788.192C736.197,792.686 722.261,794.934 707.808,794.934C693.06,794.934 679.05,792.686 665.777,788.192C652.504,783.697 640.411,777.587 629.498,769.862C618.437,761.996 608.814,752.796 600.629,742.261C592.444,731.727 586.066,719.788 581.494,706.444C579.282,700.124 577.586,693.557 576.406,686.745C575.226,679.933 574.636,673.015 574.636,665.992Z"/>
    </g>
    <g transform="matrix(0.899248,0,0,0.413876,-513.768281,-143.880306)">
        <path d="M570.967,718.126L570.967,350.093L606.088,350.093L606.088,479.059L632.243,479.059L632.243,350.093L667.364,350.093L667.364,718.126L632.243,718.126L632.243,547.099L606.088,547.099L606.088,718.126L570.967,718.126Z" style="fill-rule:nonzero;"/>
        <path d="M760.025,718.126L685.298,718.126L685.298,350.093L759.277,350.093L759.277,418.132L720.42,418.132L720.42,488.337L756.288,488.337L756.288,556.377L720.42,556.377L720.42,650.086L760.025,650.086L760.025,718.126Z" style="fill-rule:nonzero;"/>
        <path d="M868.378,445.967C868.378,464.317 866.534,479.987 862.848,492.976C861.154,499.162 859.087,504.625 856.646,509.368C854.205,514.11 851.191,518.13 847.604,521.429C844.216,524.316 840.579,526.171 836.694,526.996L836.694,531.944C840.281,531.944 843.917,534.316 847.604,539.058C851.091,543.8 853.831,550.088 855.824,557.923C856.322,559.985 856.745,562.047 857.094,564.109C857.443,566.171 857.767,568.232 858.065,570.294L875.85,718.126L840.729,718.126L819.955,562.562L808.597,562.562L808.597,718.126L773.475,718.126L773.475,350.093L825.784,350.093C830.566,350.093 835.174,351.588 839.608,354.577C844.042,357.567 848.052,361.948 851.639,367.721C855.226,373.7 858.24,380.504 860.681,388.133C863.122,395.762 865.04,404.525 866.435,414.421C867.73,424.524 868.378,435.039 868.378,445.967ZM808.597,494.523L816.817,494.523C818.71,494.523 820.528,494.007 822.272,492.976C824.015,491.945 825.634,490.296 827.129,488.028C829.719,483.698 831.563,477.513 832.659,469.472C833.057,465.967 833.256,461.637 833.256,456.482C833.256,444.73 831.812,435.4 828.922,428.493C826.033,421.586 821.998,418.132 816.817,418.132L808.597,418.132L808.597,494.523Z" style="fill-rule:nonzero;"/>
        <path d="M936.528,350.093L947.886,497.306C948.584,506.584 949.207,516.739 949.755,527.769C950.303,538.8 950.776,550.81 951.174,563.799C951.473,573.696 951.697,582.201 951.847,589.314C951.996,596.428 952.121,603.541 952.221,610.654C952.32,617.767 952.47,626.479 952.669,636.788C952.769,642.973 952.818,648.952 952.818,654.725L952.818,671.735L955.807,671.735C955.807,660.395 955.882,648.746 956.032,636.788C956.181,624.829 956.355,612.664 956.555,600.294C956.754,587.304 957.053,574.985 957.451,563.336C957.85,551.686 958.348,540.192 958.946,528.852C959.245,523.285 959.544,517.873 959.843,512.615C960.141,507.357 960.49,502.254 960.889,497.306L972.098,350.093L1021.566,350.093L1021.566,718.126L986.445,718.126L986.445,674.519C986.445,658.437 986.644,640.653 987.043,621.169C987.441,601.685 987.989,582.768 988.687,564.418C989.384,544.831 990.132,525.45 990.929,506.275C991.726,487.1 992.623,468.131 993.619,449.369C994.017,440.091 994.466,431.019 994.964,422.153C995.362,413.287 995.761,404.731 996.16,396.483L993.171,396.483C992.573,409.267 991.925,421.328 991.228,432.668C990.53,444.008 989.808,455.451 989.061,466.997C988.313,478.544 987.491,491.327 986.595,505.347C985.798,517.099 984.876,529.676 983.83,543.078C982.784,556.48 981.712,569.779 980.616,582.974C979.521,596.17 978.474,608.335 977.478,619.468C976.681,628.54 975.884,637.406 975.087,646.066C974.19,654.725 973.343,663.179 972.546,671.426L967.764,718.126L940.862,718.126L936.08,671.426C934.884,659.055 933.763,647.406 932.717,636.478C931.671,625.551 930.65,614.262 929.653,602.613C928.657,590.964 927.611,577.82 926.515,563.181C924.721,540.913 923.127,520.038 921.732,500.553C920.337,481.069 919.241,463.905 918.444,449.06C917.846,439.988 917.298,431.019 916.8,422.153C916.302,413.287 915.854,404.731 915.455,396.483L912.466,396.483C913.263,412.359 914.11,429.472 915.007,447.823C915.904,466.173 916.8,485.657 917.697,506.275C918.295,521.12 918.818,534.419 919.266,546.171C919.715,557.923 920.138,569.676 920.537,581.428C920.935,593.18 921.284,606.479 921.583,621.324C921.981,639.674 922.181,657.406 922.181,674.519L922.181,718.126L887.059,718.126L887.059,350.093L936.528,350.093Z" style="fill-rule:nonzero;"/>
        <path d="M1114.227,718.126L1039.501,718.126L1039.501,350.093L1113.48,350.093L1113.48,418.132L1074.622,418.132L1074.622,488.337L1110.491,488.337L1110.491,556.377L1074.622,556.377L1074.622,650.086L1114.227,650.086L1114.227,718.126Z" style="fill-rule:nonzero;"/>
        <path d="M1179.089,460.503L1179.089,438.854C1179.089,418.854 1175.851,408.854 1169.375,408.854C1166.386,408.854 1164.045,411.225 1162.351,415.968C1160.657,420.71 1159.81,427.514 1159.81,436.38C1159.81,439.06 1159.935,441.946 1160.184,445.039C1160.433,448.132 1161.055,451.431 1162.052,454.936C1162.849,458.029 1164.045,461.688 1165.639,465.915C1167.233,470.142 1169.226,474.626 1171.617,479.368C1172.812,482.049 1174.157,484.832 1175.652,487.719C1177.047,490.811 1178.641,494.007 1180.435,497.306C1185.815,507.409 1190.772,517.306 1195.305,526.996C1199.838,536.687 1203.55,545.243 1206.439,552.666C1209.329,560.501 1211.62,568.026 1213.314,575.242C1215.008,582.459 1216.253,589.881 1217.05,597.51C1217.449,601.427 1217.723,605.448 1217.872,609.572C1218.022,613.695 1218.097,618.025 1218.097,622.561C1218.097,634.932 1217.449,646.323 1216.154,656.736C1214.858,667.148 1212.866,676.477 1210.176,684.725C1207.685,692.56 1204.422,699.26 1200.386,704.827C1196.351,710.394 1191.942,714.415 1187.16,716.889C1181.879,719.775 1176.2,721.219 1170.122,721.219C1157.867,721.219 1147.904,715.755 1140.232,704.827C1132.66,694.106 1127.628,678.127 1125.137,656.89C1123.842,646.581 1123.194,634.726 1123.194,621.324L1123.194,588.85L1156.074,588.85L1156.074,621.633C1156.074,633.592 1157.269,642.87 1159.661,649.468C1161.853,656.065 1165.24,659.364 1169.823,659.364C1171.418,659.364 1172.962,658.9 1174.456,657.973C1175.951,657.045 1177.196,655.55 1178.193,653.488C1179.089,651.633 1179.936,649.313 1180.733,646.53C1181.53,643.746 1182.128,640.293 1182.527,636.169C1182.626,634.313 1182.726,632.303 1182.826,630.138C1182.925,627.973 1182.975,625.757 1182.975,623.489C1182.975,619.159 1182.826,615.396 1182.527,612.2C1182.228,609.005 1181.63,605.551 1180.733,601.84C1179.737,598.129 1178.367,594.314 1176.623,590.397C1174.88,586.479 1172.862,582.15 1170.571,577.407C1169.275,574.933 1167.856,572.253 1166.311,569.366C1164.767,566.48 1163.098,563.387 1161.305,560.088C1155.725,549.779 1150.868,540.346 1146.733,531.79C1142.598,523.233 1139.086,514.935 1136.197,506.893C1133.307,499.059 1131.04,491.481 1129.396,484.162C1127.752,476.843 1126.532,469.368 1125.735,461.74C1125.336,458.029 1125.062,454.111 1124.913,449.987C1124.763,445.864 1124.689,441.637 1124.689,437.307C1124.689,425.967 1125.262,415.401 1126.407,405.607C1127.553,395.813 1129.372,387.205 1131.862,379.783C1136.745,365.35 1143.819,355.66 1153.085,350.711C1157.668,348.237 1162.899,347 1168.777,347C1179.936,347 1189.103,351.639 1196.276,360.917C1198.668,364.01 1201.208,368.855 1203.899,375.453C1206.589,382.051 1208.681,391.02 1210.176,402.36C1211.371,411.638 1211.969,421.947 1211.969,433.287L1211.969,460.503L1179.089,460.503Z" style="fill-rule:nonzero;"/>
    </g>
</svg>
